<?xml version="1.0"?><svg viewBox="0 0 610 610" xmlns="http://www.w3.org/2000/svg" xmlns:xlink="http://www.w3.org/1999/xlink"><style>:root>svg{display:none}:root>svg:target{display:block}</style><svg viewBox="0 0 610 610" id="eco_green_web" xmlns="http://www.w3.org/2000/svg"><g transform="translate(5 -397.36)"><rect stroke-linejoin="round" ry="1.538" height="600" width="600" stroke="#4a0" y="402.36" stroke-width="10" fill="none"/><path d="M308.34 458.422c-127.77 0-231.31 103.55-231.31 231.31 0 127.77 103.55 231.31 231.31 231.31 14.887 0 29.345-1.427 43.438-4.125l6.687 37.312 49.72-41.25 49.124-41.875-60.53-22.188-60.72-21.812 7.47 43.406c-11.367 2.206-23.166 3.344-35.189 3.344-101.72 0-184.16-82.408-184.16-184.12 0-101.72 82.44-184.16 184.16-184.16 105.85 10.185 176.75 78.849 175.33 152.5-.812 54.01-21.41 87.552-78.357 89.795v-171.32h-43.156v29.438c-12.512-22.42-45.905-34.292-67.75-34.47-29.229.001-53.102 10.572-71.562 31.939-18.46 21.366-27.813 49.22-27.812 83.406 0 34.186 9.523 62.04 27.812 83.406 18.46 21.195 42.162 31.438 71.562 31.438 22.547-.32 59.365-14.59 66.844-31.125l.907 32.5c132.64 4.24 174.2-70.71 175.09-143.45-1.04-120.74-117.55-201.57-228.91-201.22zm-4.844 160.5c15.383 0 27.41 6.114 36.47 18.25 9.23 11.965 14.124 28.536 14.124 49.219 0 20.854-4.597 37.381-13.656 49.688-9.06 12.136-21.256 18.219-36.469 18.219-15.384 0-27.41-6.083-36.469-18.219-8.888-12.136-13.688-28.663-13.688-49.688 0-20.682 4.8-37.253 13.688-49.219 9.06-12.136 20.958-18.25 36-18.25z" fill="#4a0" fill-opacity=".769"/></g></svg></svg>